<?xml version="1.0" standalone="no"?>
<!DOCTYPE svg PUBLIC "-//W3C//DTD SVG 20010904//EN"
 "http://www.w3.org/TR/2001/REC-SVG-20010904/DTD/svg10.dtd">
<svg version="1.0" xmlns="http://www.w3.org/2000/svg"
 width="2000.000000pt" height="2000.000000pt" viewBox="0 0 2000.000000 2000.000000"
 preserveAspectRatio="xMidYMid meet">
<metadata>
Created by potrace 1.16, written by Peter Selinger 2001-2019
</metadata>
<g transform="translate(0.000000,2000.000000) scale(0.100000,-0.100000)"
fill="#000000" stroke="none">
<path d="M0 10000 l0 -10000 10000 0 10000 0 0 10000 0 10000 -10000 0 -10000
0 0 -10000z m6425 4448 c270 -26 549 -55 620 -63 72 -9 166 -20 210 -25 44 -5
100 -14 125 -19 25 -6 68 -15 95 -20 103 -21 162 -34 240 -52 45 -10 91 -19
103 -19 13 0 32 -5 42 -10 10 -6 49 -17 87 -26 146 -34 180 -42 233 -59 30 -9
72 -23 93 -31 20 -8 47 -14 58 -14 12 0 35 -6 52 -14 18 -8 49 -20 70 -26 20
-6 37 -16 37 -21 0 -5 8 -9 18 -9 9 0 30 -7 45 -15 16 -8 46 -19 68 -25 21 -6
39 -15 39 -20 0 -5 16 -12 35 -16 19 -3 37 -10 40 -14 3 -5 36 -23 73 -41 67
-32 165 -92 190 -116 7 -7 18 -13 23 -13 9 0 67 -37 79 -51 3 -3 41 -34 85
-70 83 -67 205 -187 205 -201 0 -4 6 -8 13 -8 6 -1 46 -42 87 -91 41 -50 92
-109 113 -132 20 -23 37 -44 37 -48 0 -3 8 -15 18 -27 9 -11 35 -46 57 -77 22
-31 66 -91 98 -132 31 -42 57 -79 57 -83 0 -3 27 -34 60 -68 63 -66 71 -80
171 -322 25 -60 79 -216 89 -260 5 -19 19 -69 30 -110 12 -41 26 -95 31 -120
38 -179 50 -237 63 -330 39 -260 41 -356 41 -2090 0 -1885 1 -1852 -66 -2230
-6 -36 -15 -90 -21 -120 -5 -30 -18 -86 -29 -125 -43 -153 -48 -171 -53 -190
-7 -32 -65 -195 -85 -245 -11 -25 -29 -70 -41 -100 -34 -86 -134 -283 -178
-350 -9 -14 -27 -45 -41 -70 -13 -25 -36 -61 -50 -80 -15 -19 -40 -55 -56 -80
-35 -52 -38 -56 -68 -91 -12 -14 -51 -60 -87 -103 -84 -99 -262 -272 -370
-359 -92 -74 -336 -239 -422 -285 -132 -71 -379 -192 -393 -192 -4 0 -21 -6
-38 -14 -127 -54 -407 -142 -562 -176 -259 -57 -412 -82 -730 -117 -146 -16
-321 -18 -1933 -21 -1351 -2 -1777 0 -1788 9 -12 10 -14 692 -14 4914 0 2697
3 4917 6 4934 l7 31 1296 -3 1296 -2 490 -47z m9518 22 l1080 0 23 -26 24 -25
0 -750 c0 -412 -1 -750 -2 -751 -2 -2 -619 -5 -1373 -8 l-1370 -5 -3 -4163 -2
-4162 -813 2 -812 3 -3 4163 -2 4162 -1275 0 c-872 0 -1281 3 -1297 11 -13 5
-38 31 -55 57 -70 101 -101 144 -126 171 -14 16 -38 49 -54 73 -15 23 -33 47
-40 51 -7 4 -13 14 -13 21 0 7 -15 28 -33 47 -19 19 -56 61 -82 94 -26 33 -74
87 -106 120 -111 117 -139 148 -139 156 0 5 -4 9 -10 9 -5 0 -25 16 -44 35
-20 19 -39 35 -43 35 -5 0 -16 8 -24 18 -39 42 -196 162 -214 162 -6 0 -24 12
-41 28 -35 30 -61 47 -116 74 -20 10 -39 22 -42 27 -4 5 -20 12 -36 16 -17 4
-30 10 -30 15 0 5 -10 12 -22 15 -13 4 -54 22 -91 41 -38 19 -73 34 -79 34 -6
0 -47 15 -92 34 -45 18 -142 52 -216 76 -74 23 -154 49 -178 56 -23 8 -51 14
-62 14 -11 0 -41 9 -68 19 -26 11 -70 23 -98 27 l-49 8 40 7 c22 4 1577 8
3455 8 2246 1 3418 5 3424 11 7 7 13 7 20 0 7 -7 383 -10 1089 -10z"/>
<path d="M4967 12903 c-4 -3 -7 -1514 -7 -3358 0 -2593 3 -3354 12 -3363 15
-15 1706 -16 1863 -2 182 17 340 38 368 49 16 6 40 11 55 11 15 1 45 8 67 16
22 8 58 19 80 24 22 5 72 20 110 35 39 14 81 30 95 34 26 8 179 82 215 104
132 79 290 201 387 301 54 54 168 198 168 210 0 2 16 28 35 58 30 44 92 164
126 243 25 58 65 186 81 255 5 25 16 72 24 105 40 170 44 329 44 1928 0 1474
-3 1688 -30 1857 -29 177 -80 355 -143 492 -19 40 -37 80 -41 88 -3 8 -15 29
-26 45 -11 17 -26 41 -33 55 -20 40 -50 84 -64 93 -7 4 -13 13 -13 19 0 28
-189 226 -285 299 -90 69 -164 119 -174 119 -5 0 -14 7 -21 15 -14 17 -250
135 -270 135 -6 0 -26 6 -43 14 -18 8 -63 23 -102 34 -38 11 -102 30 -141 41
-39 12 -86 21 -105 21 -19 0 -56 7 -83 15 -42 13 -198 15 -1096 15 -576 0
-1050 -3 -1053 -7z"/>
</g>
</svg>
